<svg width="119" height="56" viewBox="0 0 119 56" fill="none" xmlns="http://www.w3.org/2000/svg">
<path d="M9.77301 12.7135C9.77301 9.70433 12.2124 7.26489 15.2217 7.26489H37.4703C40.4795 7.26489 42.9189 9.70433 42.9189 12.7135V48.7351H9.77301V12.7135Z" fill="#F9FAFF" stroke="#6366F1" stroke-width="1.21081"/>
<path d="M0.843262 32.3567C0.843262 30.6193 2.25174 29.2108 3.9892 29.2108H19.7622C21.0996 29.2108 22.1838 30.295 22.1838 31.6324V35.5027H3.9892C2.25175 35.5027 0.843262 34.0942 0.843262 32.3567Z" fill="#6366F1"/>
<path d="M2.35681 37.4284C2.35681 35.9485 3.55654 34.7488 5.03647 34.7488H22.1838V37.6865C22.1838 39.0239 21.0996 40.1081 19.7622 40.1081H5.03647C3.55654 40.1081 2.35681 38.9084 2.35681 37.4284Z" fill="#4F46E5"/>
<ellipse cx="29.8686" cy="22.0973" rx="1.81622" ry="2.42162" fill="#6366F1"/>
<ellipse cx="13.4054" cy="22.0973" rx="1.81622" ry="2.42162" fill="#6366F1"/>
<path d="M33.0054 0L34.4836 4.54928H39.267L35.3971 7.36089L36.8753 11.9102L33.0054 9.09856L29.1356 11.9102L30.6137 7.36089L26.7439 4.54928H31.5273L33.0054 0Z" fill="#4F46E5"/>
<path d="M15.1459 1.51349L16.3862 5.3307H20.3998L17.1527 7.68987L18.393 11.5071L15.1459 9.14791L11.8988 11.5071L13.1391 7.68987L9.89196 5.3307H13.9056L15.1459 1.51349Z" fill="#4F46E5"/>
<path d="M17.0378 51.0054C17.0378 53.3195 14.6863 55.3946 11.5135 55.3946C8.34074 55.3946 5.98919 53.3195 5.98919 51.0054C5.98919 48.6913 8.34074 46.6162 11.5135 46.6162C14.6863 46.6162 17.0378 48.6913 17.0378 51.0054Z" fill="#F9FAFF" stroke="#6366F1" stroke-width="1.21081"/>
<path d="M26.8757 51.0054C26.8757 53.3195 24.5242 55.3946 21.3514 55.3946C18.1786 55.3946 15.8271 53.3195 15.8271 51.0054C15.8271 48.6913 18.1786 46.6162 21.3514 46.6162C24.5242 46.6162 26.8757 48.6913 26.8757 51.0054Z" fill="#F9FAFF" stroke="#6366F1" stroke-width="1.21081"/>
<path d="M36.7135 51.0054C36.7135 53.3195 34.362 55.3946 31.1892 55.3946C28.0164 55.3946 25.6649 53.3195 25.6649 51.0054C25.6649 48.6913 28.0164 46.6162 31.1892 46.6162C34.362 46.6162 36.7135 48.6913 36.7135 51.0054Z" fill="#F9FAFF" stroke="#6366F1" stroke-width="1.21081"/>
<path d="M46.5514 51.0054C46.5514 53.3195 44.1998 55.3946 41.0271 55.3946C37.8543 55.3946 35.5027 53.3195 35.5027 51.0054C35.5027 48.6913 37.8543 46.6162 41.0271 46.6162C44.1998 46.6162 46.5514 48.6913 46.5514 51.0054Z" fill="#F9FAFF" stroke="#6366F1" stroke-width="1.21081"/>
<path d="M53.4927 32.272L52.0207 18.32C52.0207 18.32 51.9887 18.256 51.9247 18.128C51.8821 18 51.8714 17.8293 51.8927 17.616C51.9141 17.4027 52.0314 17.1787 52.2447 16.944C52.4794 16.7093 52.8741 16.496 53.4287 16.304C54.1754 16.0267 55.0501 15.8027 56.0527 15.632C57.0767 15.44 58.1541 15.3867 59.2847 15.472C60.4367 15.5573 61.5674 15.8987 62.6767 16.496C63.3381 16.8373 63.8287 17.328 64.1487 17.968C64.4687 18.608 64.6607 19.2907 64.7247 20.016C64.7887 20.7413 64.7887 21.4347 64.7247 22.096C64.6821 22.7573 64.6074 23.3013 64.5007 23.728C64.4154 24.1547 64.3727 24.368 64.3727 24.368C64.3727 24.368 64.2981 24.528 64.1487 24.848C63.9994 25.168 63.7114 25.5307 63.2847 25.936C62.8794 26.32 62.2821 26.6293 61.4927 26.864L66.0367 31.76C66.0367 31.76 66.1114 31.8453 66.2607 32.016C66.4101 32.1867 66.5274 32.4 66.6127 32.656C66.7194 32.8907 66.6981 33.136 66.5487 33.392C66.4207 33.6267 66.0687 33.8293 65.4927 34C64.8954 34.1707 64.3621 34.2133 63.8927 34.128C63.4447 34.0427 63.0714 33.904 62.7727 33.712C62.4954 33.52 62.2821 33.3387 62.1327 33.168C61.9834 32.9973 61.9087 32.912 61.9087 32.912L57.6847 27.696L58.7407 32.208C58.7407 32.208 58.7621 32.304 58.8047 32.496C58.8474 32.6667 58.8261 32.8693 58.7407 33.104C58.6554 33.3387 58.4421 33.552 58.1007 33.744C57.7594 33.9147 57.2154 34 56.4687 34C55.7221 34 55.1354 33.9147 54.7087 33.744C54.3034 33.5733 54.0154 33.3707 53.8447 33.136C53.6741 32.9013 53.5674 32.6987 53.5247 32.528C53.5034 32.3573 53.4927 32.272 53.4927 32.272ZM56.5327 18.288L57.3007 24.72C57.3007 24.72 57.4181 24.7307 57.6527 24.752C57.9087 24.7733 58.2074 24.752 58.5487 24.688C58.9114 24.624 59.2527 24.4747 59.5727 24.24C59.9141 23.984 60.1914 23.6 60.4047 23.088C60.6181 22.5547 60.6927 21.8293 60.6287 20.912C60.5647 20.0373 60.3941 19.3973 60.1167 18.992C59.8394 18.5653 59.4981 18.2987 59.0927 18.192C58.6874 18.064 58.2607 18.032 57.8127 18.096C57.3647 18.1387 56.9381 18.2027 56.5327 18.288ZM67.8295 17.776C67.8295 17.776 67.8082 17.6907 67.7655 17.52C67.7228 17.328 67.7335 17.104 67.7975 16.848C67.8828 16.592 68.0748 16.3573 68.3735 16.144C68.6935 15.9307 69.1948 15.792 69.8775 15.728C70.5602 15.664 71.3282 15.6107 72.1815 15.568C73.0562 15.5253 73.8882 15.4827 74.6775 15.44C75.4882 15.3973 76.1495 15.3653 76.6615 15.344C77.1735 15.3227 77.4295 15.312 77.4295 15.312C77.4295 15.312 77.5682 15.3227 77.8455 15.344C78.1442 15.344 78.4855 15.3867 78.8695 15.472C79.2748 15.536 79.6375 15.6747 79.9575 15.888C80.2775 16.08 80.4695 16.368 80.5335 16.752C80.5975 17.136 80.5228 17.4347 80.3095 17.648C80.0962 17.8613 79.8402 18.0213 79.5415 18.128C79.2428 18.2133 78.9762 18.2667 78.7415 18.288C78.5068 18.3093 78.3895 18.32 78.3895 18.32L73.2695 18.608C73.2695 18.608 73.3015 18.7467 73.3655 19.024C73.4295 19.3013 73.4935 19.6213 73.5575 19.984C73.6428 20.3253 73.6962 20.624 73.7175 20.88C73.7388 21.1147 73.7602 21.424 73.7815 21.808C73.8028 22.1707 73.8242 22.5013 73.8455 22.8C73.8668 23.0773 73.8775 23.216 73.8775 23.216H76.2455C76.2455 23.216 76.3628 23.2267 76.5975 23.248C76.8322 23.248 77.0988 23.2907 77.3975 23.376C77.7175 23.44 77.9948 23.5467 78.2295 23.696C78.4642 23.8453 78.5922 24.0693 78.6135 24.368C78.6348 24.752 78.4855 25.04 78.1655 25.232C77.8668 25.424 77.5468 25.552 77.2055 25.616C76.8855 25.6587 76.6828 25.6907 76.5975 25.712C76.5335 25.712 76.3628 25.7227 76.0855 25.744C75.8082 25.744 75.4988 25.744 75.1575 25.744C74.8375 25.744 74.5495 25.744 74.2935 25.744C74.0375 25.744 73.9095 25.744 73.9095 25.744C73.9095 25.744 73.9095 25.904 73.9095 26.224C73.9308 26.5227 73.9522 26.8747 73.9735 27.28C73.9948 27.6853 73.9948 28.0373 73.9735 28.336C73.9735 28.6133 73.9628 28.9547 73.9415 29.36C73.9202 29.744 73.8988 30.0853 73.8775 30.384C73.8562 30.6613 73.8455 30.8 73.8455 30.8L78.1655 30.64C78.1655 30.64 78.3042 30.64 78.5815 30.64C78.8588 30.6187 79.1895 30.64 79.5735 30.704C79.9575 30.768 80.2988 30.896 80.5975 31.088C80.8962 31.28 81.0562 31.568 81.0775 31.952C81.1202 32.336 81.0135 32.6453 80.7575 32.88C80.5015 33.1147 80.2028 33.2853 79.8615 33.392C79.5202 33.4987 79.2108 33.5733 78.9335 33.616C78.6775 33.6373 78.5495 33.648 78.5495 33.648L71.6375 34C71.6375 34 71.4668 34 71.1255 34C70.8055 34.0213 70.4322 34 70.0055 33.936C69.5788 33.8507 69.2055 33.6907 68.8855 33.456C68.5655 33.2 68.4162 32.816 68.4375 32.304C68.4802 31.6213 68.5228 30.5547 68.5655 29.104C68.6082 27.632 68.5868 25.9147 68.5015 23.952C68.4162 21.9893 68.1922 19.9307 67.8295 17.776Z" fill="#6366F1"/>
<path d="M86.1567 40C85.3674 40 84.7701 39.8933 84.3647 39.68C83.9807 39.4667 83.7247 39.2213 83.5967 38.944C83.4687 38.6667 83.4047 38.4213 83.4047 38.208C83.4047 37.9947 83.4047 37.888 83.4047 37.888L83.0207 24C83.0207 24 83.0101 23.8933 82.9887 23.68C82.9674 23.4667 83.0101 23.2213 83.1167 22.944C83.2234 22.6453 83.4474 22.3893 83.7887 22.176C84.1301 21.9413 84.6634 21.824 85.3887 21.824C86.3487 21.8027 87.0741 21.9413 87.5647 22.24C88.0554 22.5173 88.3754 22.8053 88.5247 23.104C88.6954 23.3813 88.7807 23.52 88.7807 23.52L92.4607 30.208C92.4607 30.208 92.5461 30.016 92.7167 29.632C92.9087 29.2267 93.1327 28.7253 93.3887 28.128C93.6661 27.5307 93.9434 26.9227 94.2207 26.304C94.4981 25.6853 94.7434 25.152 94.9567 24.704C95.1701 24.2347 95.3087 23.936 95.3727 23.808C95.4794 23.5947 95.6714 23.3067 95.9487 22.944C96.2261 22.56 96.6207 22.208 97.1327 21.888C97.6661 21.568 98.3594 21.3973 99.2127 21.376C99.8527 21.3547 100.343 21.4293 100.685 21.6C101.026 21.7493 101.261 21.9307 101.389 22.144C101.538 22.3573 101.623 22.5493 101.645 22.72C101.666 22.8907 101.677 22.976 101.677 22.976C101.677 22.976 101.677 23.2533 101.677 23.808C101.677 24.3413 101.677 25.056 101.677 25.952C101.698 26.848 101.709 27.8293 101.709 28.896C101.709 29.9627 101.709 31.04 101.709 32.128C101.709 33.1947 101.709 34.176 101.709 35.072C101.73 35.968 101.741 36.6933 101.741 37.248C101.741 37.8027 101.741 38.0907 101.741 38.112C101.741 38.1333 101.73 38.24 101.709 38.432C101.709 38.624 101.634 38.848 101.485 39.104C101.335 39.3387 101.069 39.552 100.685 39.744C100.322 39.9147 99.7781 40 99.0527 40C98.3274 40 97.7727 39.9253 97.3887 39.776C97.0261 39.6053 96.7701 39.424 96.6207 39.232C96.4714 39.0187 96.3861 38.8373 96.3647 38.688C96.3434 38.5387 96.3327 38.464 96.3327 38.464C96.3327 38.464 96.3327 38.2827 96.3327 37.92C96.3327 37.536 96.3327 37.0667 96.3327 36.512C96.3541 35.936 96.3647 35.3707 96.3647 34.816C96.3861 34.24 96.3967 33.76 96.3967 33.376C96.3967 32.992 96.3967 32.8 96.3967 32.8L96.6527 28.224L94.9887 31.776C94.9887 31.776 94.9247 31.8933 94.7967 32.128C94.6901 32.3627 94.4767 32.5973 94.1567 32.832C93.8367 33.0667 93.3567 33.1947 92.7167 33.216C92.0981 33.2373 91.6074 33.152 91.2447 32.96C90.9034 32.7467 90.6581 32.544 90.5087 32.352C90.3807 32.1387 90.3167 32.032 90.3167 32.032L88.2367 28.224C88.2367 28.224 88.2474 28.48 88.2687 28.992C88.3114 29.4827 88.3541 30.1333 88.3967 30.944C88.4394 31.7333 88.4821 32.576 88.5247 33.472C88.5674 34.3467 88.5994 35.1787 88.6207 35.968C88.6634 36.736 88.6954 37.3547 88.7167 37.824C88.7381 38.4 88.6207 38.848 88.3647 39.168C88.1087 39.4667 87.8101 39.68 87.4687 39.808C87.1274 39.9147 86.8181 39.9787 86.5407 40C86.2847 40 86.1567 40 86.1567 40ZM103.3 30.688C103.3 28.9813 103.599 27.424 104.196 26.016C104.794 24.5867 105.604 23.456 106.628 22.624C107.652 21.7707 108.783 21.344 110.02 21.344C110.938 21.344 111.812 21.5893 112.644 22.08C113.476 22.5493 114.212 23.2213 114.852 24.096C115.492 24.9493 115.994 25.9413 116.356 27.072C116.719 28.2027 116.9 29.408 116.9 30.688C116.9 31.968 116.719 33.1733 116.356 34.304C115.994 35.4347 115.492 36.4373 114.852 37.312C114.212 38.1653 113.476 38.8373 112.644 39.328C111.812 39.7973 110.938 40.032 110.02 40.032C108.783 40.032 107.652 39.616 106.628 38.784C105.604 37.9307 104.794 36.8 104.196 35.392C103.599 33.984 103.3 32.416 103.3 30.688ZM108.196 30.56C108.196 31.7973 108.282 32.9387 108.452 33.984C108.623 35.008 108.858 35.8293 109.156 36.448C109.455 37.0453 109.786 37.344 110.148 37.344C110.511 37.344 110.842 37.0453 111.14 36.448C111.439 35.8293 111.674 35.008 111.844 33.984C112.015 32.9387 112.1 31.7973 112.1 30.56C112.1 29.3013 112.015 28.16 111.844 27.136C111.674 26.112 111.439 25.2907 111.14 24.672C110.842 24.0533 110.511 23.744 110.148 23.744C109.786 23.744 109.455 24.0533 109.156 24.672C108.858 25.2907 108.623 26.112 108.452 27.136C108.282 28.16 108.196 29.3013 108.196 30.56Z" fill="#6366F1"/>
</svg>
