<svg width="200" height="241" viewBox="0 0 200 241" fill="none" xmlns="http://www.w3.org/2000/svg">
<path d="M39.0272 54.9865C39.0272 42.0899 49.482 31.6351 62.3786 31.6351H157.73C170.626 31.6351 181.081 42.0899 181.081 54.9865V209.365H39.0272V54.9865Z" fill="#F9FAFF" stroke="#6366F1" stroke-width="5.18919"/>
<path d="M0.756836 139.172C0.756836 131.725 6.79319 125.689 14.2394 125.689H81.8379C87.5697 125.689 92.2163 130.336 92.2163 136.067V152.654H14.2394C6.79318 152.654 0.756836 146.618 0.756836 139.172Z" fill="#6366F1"/>
<path d="M7.24316 160.908C7.24316 154.565 12.3848 149.423 18.7274 149.423H92.2161V162.013C92.2161 167.745 87.5695 172.392 81.8377 172.392H18.7274C12.3848 172.392 7.24316 167.25 7.24316 160.908Z" fill="#4F46E5"/>
<ellipse cx="125.152" cy="95.2026" rx="7.78378" ry="10.3784" fill="#6366F1"/>
<ellipse cx="54.5948" cy="95.2026" rx="7.78378" ry="10.3784" fill="#6366F1"/>
<path d="M138.595 0.5L144.93 19.9969H165.43L148.845 32.0467L155.18 51.5436L138.595 39.4938L122.01 51.5436L128.344 32.0467L111.759 19.9969H132.26L138.595 0.5Z" fill="#4F46E5"/>
<path d="M62.0541 6.98633L67.3696 23.3458H84.571L70.6548 33.4565L75.9703 49.816L62.0541 39.7053L48.1379 49.816L53.4534 33.4565L39.5372 23.3458H56.7386L62.0541 6.98633Z" fill="#4F46E5"/>
<path d="M70.1622 219.094C70.1622 229.012 60.0842 237.905 46.4866 237.905C32.8889 237.905 22.8109 229.012 22.8109 219.094C22.8109 209.177 32.8889 200.284 46.4866 200.284C60.0842 200.284 70.1622 209.177 70.1622 219.094Z" fill="#F9FAFF" stroke="#6366F1" stroke-width="5.18919"/>
<path d="M112.324 219.094C112.324 229.012 102.246 237.905 88.6487 237.905C75.051 237.905 64.973 229.012 64.973 219.094C64.973 209.177 75.051 200.284 88.6487 200.284C102.246 200.284 112.324 209.177 112.324 219.094Z" fill="#F9FAFF" stroke="#6366F1" stroke-width="5.18919"/>
<path d="M154.486 219.094C154.486 229.012 144.408 237.905 130.811 237.905C117.213 237.905 107.135 229.012 107.135 219.094C107.135 209.177 117.213 200.284 130.811 200.284C144.408 200.284 154.486 209.177 154.486 219.094Z" fill="#F9FAFF" stroke="#6366F1" stroke-width="5.18919"/>
<path d="M196.649 219.094C196.649 229.012 186.571 237.905 172.973 237.905C159.375 237.905 149.297 229.012 149.297 219.094C149.297 209.177 159.375 200.284 172.973 200.284C186.571 200.284 196.649 209.177 196.649 219.094Z" fill="#F9FAFF" stroke="#6366F1" stroke-width="5.18919"/>
</svg>
