<svg width="78" height="93" viewBox="0 0 78 93" fill="none" xmlns="http://www.w3.org/2000/svg">
<path d="M24.5 12H61.25C66.2206 12 70.25 16.0294 70.25 21V80.5H15.5V21C15.5 16.0294 19.5294 12 24.5 12Z" fill="#F9FAFF" stroke="#6366F1" stroke-width="2"/>
<path d="M0.75 53.4464C0.75 50.5765 3.07651 48.25 5.94641 48.25H32C34.2091 48.25 36 50.0409 36 52.25V58.6428H5.94641C3.07651 58.6428 0.75 56.3163 0.75 53.4464V53.4464Z" fill="#6366F1"/>
<path d="M3.25 61.8238C3.25 59.3793 5.23169 57.3976 7.67623 57.3976H36V62.25C36 64.4592 34.2091 66.25 32 66.25H7.67623C5.23169 66.25 3.25 64.2684 3.25 61.8238V61.8238Z" fill="#4F46E5"/>
<path d="M18.819 40.4446L24.1249 36.6111" stroke="#6366F1" stroke-linecap="round"/>
<path d="M18.1249 36.5555L24.1249 36.5555" stroke="#6366F1" stroke-linecap="round"/>
<line x1="18.6763" y1="31.9906" x2="24.157" y2="36.5459" stroke="#6366F1" stroke-linecap="round"/>
<path d="M50.8749 32.0557L45.569 35.8891" stroke="#6366F1" stroke-linecap="round"/>
<path d="M51.569 35.9447L45.569 35.9447" stroke="#6366F1" stroke-linecap="round"/>
<line x1="51.0176" y1="40.5096" x2="45.5368" y2="35.9543" stroke="#6366F1" stroke-linecap="round"/>
<path d="M53.875 0L56.3166 7.51444L64.2177 7.51444L57.8256 12.1586L60.2672 19.6731L53.875 15.0289L47.4828 19.6731L49.9244 12.1586L43.5323 7.51444L51.4334 7.51444L53.875 0Z" fill="#4F46E5"/>
<path d="M24.375 2.5L26.4237 8.80522H33.0534L27.6898 12.7021L29.7385 19.0073L24.375 15.1104L19.0115 19.0073L21.0601 12.7021L15.6966 8.80522H22.3263L24.375 2.5Z" fill="#4F46E5"/>
<path d="M27.5 84.25C27.5 88.0724 23.6158 91.5 18.375 91.5C13.1342 91.5 9.25 88.0724 9.25 84.25C9.25 80.4276 13.1342 77 18.375 77C23.6158 77 27.5 80.4276 27.5 84.25Z" fill="#F9FAFF" stroke="#6366F1" stroke-width="2"/>
<path d="M43.75 84.25C43.75 88.0724 39.8658 91.5 34.625 91.5C29.3842 91.5 25.5 88.0724 25.5 84.25C25.5 80.4276 29.3842 77 34.625 77C39.8658 77 43.75 80.4276 43.75 84.25Z" fill="#F9FAFF" stroke="#6366F1" stroke-width="2"/>
<path d="M60 84.25C60 88.0724 56.1158 91.5 50.875 91.5C45.6342 91.5 41.75 88.0724 41.75 84.25C41.75 80.4276 45.6342 77 50.875 77C56.1158 77 60 80.4276 60 84.25Z" fill="#F9FAFF" stroke="#6366F1" stroke-width="2"/>
<path d="M76.25 84.25C76.25 88.0724 72.3658 91.5 67.125 91.5C61.8842 91.5 58 88.0724 58 84.25C58 80.4276 61.8842 77 67.125 77C72.3658 77 76.25 80.4276 76.25 84.25Z" fill="#F9FAFF" stroke="#6366F1" stroke-width="2"/>
<path d="M48.8192 42.5C46.5692 44.625 45.2072 50.5832 48.3192 50.875C52.3192 51.25 50.75 44.5 48.8192 42.5Z" fill="#6366F1"/>
</svg>
