<svg width="16" height="17" viewBox="0 0 16 17" fill="none" xmlns="http://www.w3.org/2000/svg">
<g id="ri:draggable">
<path id="Vector" d="M5.6665 5.16669C5.79783 5.16669 5.92786 5.14082 6.04919 5.09057C6.17051 5.04031 6.28075 4.96665 6.37361 4.87379C6.46647 4.78094 6.54013 4.6707 6.59038 4.54937C6.64064 4.42804 6.6665 4.29801 6.6665 4.16669C6.6665 4.03537 6.64064 3.90533 6.59038 3.784C6.54013 3.66268 6.46647 3.55244 6.37361 3.45958C6.28075 3.36672 6.17051 3.29306 6.04919 3.24281C5.92786 3.19255 5.79783 3.16669 5.6665 3.16669C5.40129 3.16669 5.14693 3.27204 4.9594 3.45958C4.77186 3.64712 4.6665 3.90147 4.6665 4.16669C4.6665 4.4319 4.77186 4.68626 4.9594 4.87379C5.14693 5.06133 5.40129 5.16669 5.6665 5.16669ZM5.6665 9.50002C5.93172 9.50002 6.18607 9.39466 6.37361 9.20713C6.56115 9.01959 6.6665 8.76524 6.6665 8.50002C6.6665 8.2348 6.56115 7.98045 6.37361 7.79291C6.18607 7.60538 5.93172 7.50002 5.6665 7.50002C5.40129 7.50002 5.14693 7.60538 4.9594 7.79291C4.77186 7.98045 4.6665 8.2348 4.6665 8.50002C4.6665 8.76524 4.77186 9.01959 4.9594 9.20713C5.14693 9.39466 5.40129 9.50002 5.6665 9.50002ZM6.6665 12.8334C6.6665 13.0986 6.56115 13.3529 6.37361 13.5405C6.18607 13.728 5.93172 13.8334 5.6665 13.8334C5.40129 13.8334 5.14693 13.728 4.9594 13.5405C4.77186 13.3529 4.6665 13.0986 4.6665 12.8334C4.6665 12.5681 4.77186 12.3138 4.9594 12.1262C5.14693 11.9387 5.40129 11.8334 5.6665 11.8334C5.93172 11.8334 6.18607 11.9387 6.37361 12.1262C6.56115 12.3138 6.6665 12.5681 6.6665 12.8334ZM10.3332 5.16669C10.4645 5.16669 10.5945 5.14082 10.7159 5.09057C10.8372 5.04031 10.9474 4.96665 11.0403 4.87379C11.1331 4.78094 11.2068 4.6707 11.257 4.54937C11.3073 4.42804 11.3332 4.29801 11.3332 4.16669C11.3332 4.03537 11.3073 3.90533 11.257 3.784C11.2068 3.66268 11.1331 3.55244 11.0403 3.45958C10.9474 3.36672 10.8372 3.29306 10.7159 3.24281C10.5945 3.19255 10.4645 3.16669 10.3332 3.16669C10.068 3.16669 9.8136 3.27204 9.62606 3.45958C9.43853 3.64712 9.33317 3.90147 9.33317 4.16669C9.33317 4.4319 9.43853 4.68626 9.62606 4.87379C9.8136 5.06133 10.068 5.16669 10.3332 5.16669ZM11.3332 8.50002C11.3332 8.76524 11.2278 9.01959 11.0403 9.20713C10.8527 9.39466 10.5984 9.50002 10.3332 9.50002C10.068 9.50002 9.8136 9.39466 9.62606 9.20713C9.43853 9.01959 9.33317 8.76524 9.33317 8.50002C9.33317 8.2348 9.43853 7.98045 9.62606 7.79291C9.8136 7.60538 10.068 7.50002 10.3332 7.50002C10.5984 7.50002 10.8527 7.60538 11.0403 7.79291C11.2278 7.98045 11.3332 8.2348 11.3332 8.50002ZM10.3332 13.8334C10.5984 13.8334 10.8527 13.728 11.0403 13.5405C11.2278 13.3529 11.3332 13.0986 11.3332 12.8334C11.3332 12.5681 11.2278 12.3138 11.0403 12.1262C10.8527 11.9387 10.5984 11.8334 10.3332 11.8334C10.068 11.8334 9.8136 11.9387 9.62606 12.1262C9.43853 12.3138 9.33317 12.5681 9.33317 12.8334C9.33317 13.0986 9.43853 13.3529 9.62606 13.5405C9.8136 13.728 10.068 13.8334 10.3332 13.8334Z" fill="#111827"/>
</g>
</svg>
