<svg width="16" height="17" viewBox="0 0 16 17" fill="none" xmlns="http://www.w3.org/2000/svg">
<g id="mdi:earth">
<path id="Vector" d="M11.9334 12.0933C11.76 11.5599 11.26 11.1666 10.6667 11.1666H10V9.16659C10 8.98977 9.9298 8.82021 9.80478 8.69518C9.67975 8.57016 9.51019 8.49992 9.33337 8.49992H5.33337V7.16659H6.66671C6.84352 7.16659 7.01309 7.09635 7.13811 6.97132C7.26314 6.8463 7.33337 6.67673 7.33337 6.49992V5.16659H8.66671C9.02033 5.16659 9.35947 5.02611 9.60952 4.77606C9.85956 4.52601 10 4.18687 10 3.83325V3.55992C10.7977 3.8815 11.5055 4.39157 12.063 5.04648C12.6204 5.70138 13.0109 6.48162 13.2009 7.32039C13.391 8.15917 13.3749 9.0315 13.1542 9.86272C12.9334 10.6939 12.5145 11.4593 11.9334 12.0933ZM7.33337 13.7866C4.70004 13.4599 2.66671 11.2199 2.66671 8.49992C2.66671 8.08659 2.72004 7.68659 2.80671 7.30659L6.00004 10.4999V11.1666C6.00004 11.5202 6.14052 11.8593 6.39057 12.1094C6.64061 12.3594 6.97975 12.4999 7.33337 12.4999M8.00004 1.83325C7.12456 1.83325 6.25766 2.00569 5.44882 2.34072C4.63998 2.67575 3.90505 3.16682 3.286 3.78587C2.03575 5.03612 1.33337 6.73181 1.33337 8.49992C1.33337 10.268 2.03575 11.9637 3.286 13.214C3.90505 13.833 4.63998 14.3241 5.44882 14.6591C6.25766 14.9941 7.12456 15.1666 8.00004 15.1666C9.76815 15.1666 11.4638 14.4642 12.7141 13.214C13.9643 11.9637 14.6667 10.268 14.6667 8.49992C14.6667 7.62444 14.4943 6.75753 14.1592 5.9487C13.8242 5.13986 13.3331 4.40493 12.7141 3.78587C12.095 3.16682 11.3601 2.67575 10.5513 2.34072C9.74243 2.00569 8.87552 1.83325 8.00004 1.83325Z" fill="#111827"/>
</g>
</svg>
